# xmcd
#
# Track frame offsets:
#	150
#	15237
#	31882
#	46243
#	64119
#	79009
#	94359
#	111736
#	128900
#	145587
#	161170
#	177213
#	193907
#	210795
#
# Disc length: 2998 seconds
#
# Revision: 2
# Processed by: cddbd v1.5.2PL0 Copyright (c) Steve Scherf et al.
# Submitted via: audiograbber 1.83.01
#
DISCID=ba0bb40e
DTITLE=Various Artist - Hot Hits Country 106
DYEAR=2001
DGENRE=Country
TTITLE0=Brooks and Dunn - Ain't Nothing 'Bout You
TTITLE1=Montgomery Gentry - She Couldn't Change Me
TTITLE2=Clay Walker - Say No More
TTITLE3=Sara Evans - I Could Not Ask For More
TTITLE4=Kenny Chesney - Don't Happen Twice
TTITLE5=Mark McGuinn - Mrs. Steven Rudy
TTITLE6=Phil Vassar - Rose Bouquet
TTITLE7=Chris Cagle - Laredo
TTITLE8=Lisa Angelle - I Will Love You
TTITLE9=Collin Raye - You Still Take Me There
TTITLE10=Tyler England - I Drove Her To Dallas
TTITLE11=Tracy Lawrence - Unforgiven
TTITLE12=Trisha Yearwood - I Would Have Loved You Anyway
TTITLE13=Lorrie Morgan and Sammy Kershaw - He Drinks Tequila
EXTD=
EXTT0=
EXTT1=
EXTT2=
EXTT3=
EXTT4=
EXTT5=
EXTT6=
EXTT7=
EXTT8=
EXTT9=
EXTT10=
EXTT11=
EXTT12=
EXTT13=
PLAYORDER=
